<?xml version="1.0" encoding="UTF-8" standalone="no"?>
<!DOCTYPE svg PUBLIC "-//W3C//DTD SVG 1.1//EN" "http://www.w3.org/Graphics/SVG/1.1/DTD/svg11.dtd">
<svg width="100%" height="100%" viewBox="0 0 1782 396" version="1.1" xmlns="http://www.w3.org/2000/svg" xmlns:xlink="http://www.w3.org/1999/xlink" xml:space="preserve" xmlns:serif="http://www.serif.com/" style="fill-rule:evenodd;clip-rule:evenodd;stroke-linejoin:round;stroke-miterlimit:2;">
    <path d="M153,99C153,135.65 149.36,165.05 143.36,188.86L90.09,188.86L90.09,242.86L121.04,242.86C92.12,287.86 54.09,287.86 54.09,287.86L54.11,341.86C54.11,341.86 138.18,341.86 181.67,242.86L243.09,242.86L243.09,188.86L198.6,188.86C200.94,177.69 202.86,165.71 204.27,152.86L288.08,152.86L288.08,287.86L243.08,287.86L243.08,341.86L342.08,341.86L342.08,152.86L342,99" style="fill:rgb(16,170,244);fill-rule:nonzero;"/>
    <path d="M612,99L612,54L558,54L558,99L396,99L396,198L450,198L450,153L558,153C558,153 558,288 423,288L396,288L396,342L423,342C423,342 612,342 612,153L684,153L684,99L612,99Z" style="fill:rgb(16,170,244);fill-rule:nonzero;"/>
    <g>
        <rect x="846" y="153" width="153" height="108" style="fill:rgb(16,170,244);"/>
        <path d="M738,0L738,396L1782,396L1782,0L738,0ZM1053,99L1053,342L999,342L999,315L846,315L846,342L792,342L792,99L1053,99ZM1348.42,338.75C1304.55,319.2 1270.82,297.67 1242.26,271L1277.75,232.99C1301.96,255.6 1331.15,274.11 1369.59,291.24L1348.42,338.74L1348.42,338.75ZM1363.16,230.78C1341.59,226.74 1326.13,218.75 1315.05,209.37C1324.09,193.85 1331.38,175.25 1335.91,153L1233,153L1233,189C1233,342 1107.01,341.99 1107.01,341.99L1107.01,288C1179,288 1179,189 1179,189L1179,153L1107,153L1107,99L1179,99L1179,54L1233,54L1233,99L1395,99C1395,99 1395,166.81 1363.16,230.78ZM1728,153L1728,342L1629,342L1629,288L1674,288L1674,153L1590.19,153C1588.78,165.85 1586.86,177.83 1584.52,189L1629.01,189L1629.01,243L1567.59,243C1524.1,342 1440.03,342 1440.03,342L1440.01,288C1440.01,288 1478.04,288 1506.96,243L1476.01,243L1476.01,189L1529.28,189C1535.28,165.19 1539.01,135.65 1539.01,99L1728.01,99L1728.01,153L1728,153Z" style="fill:rgb(16,170,244);fill-rule:nonzero;"/>
        <rect x="846" y="153" width="153" height="108" style="fill:rgb(16,170,244);fill-rule:nonzero;"/>
    </g>
    <rect x="18" y="0" width="720" height="18" style="fill:rgb(16,170,244);"/>
    <rect x="18" y="378" width="720" height="18" style="fill:rgb(16,170,244);"/>
    <rect x="0" y="0" width="18" height="396" style="fill:rgb(16,170,244);"/>
</svg>
