<svg width="181" height="24" viewBox="0 0 181 24" fill="none" xmlns="http://www.w3.org/2000/svg">
    <path
        d="M10.3143 7.54177H17.8604V11.9762H10.301V23.9999H2.74827V11.9762H0V7.54177H2.75493C2.9346 1.32122 5.96235 -1.25869 19.9233 0.58215V5.64618C11.6253 4.50335 10.4408 4.94132 10.321 7.54177H10.3143Z"
        fill="#F45397" />
    <path
        d="M44.345 15.3669C44.345 21.5334 39.8799 24 31.6351 24C23.3903 24 18.9251 21.5334 18.9251 15.3669C18.9251 9.20035 23.3903 6.73375 31.6351 6.73375C39.8799 6.73375 44.345 9.20035 44.345 15.3669ZM36.7856 15.3669C36.7856 12.2803 35.0687 11.047 31.6351 11.047C28.2014 11.047 26.4846 12.2803 26.4846 15.3669C26.4846 18.4535 28.2014 19.6801 31.6351 19.6801C35.0687 19.6801 36.7856 18.4468 36.7856 15.3669Z"
        fill="#F45397" />
    <path d="M46.308 24V0.000567145H53.8675V24H46.308Z" fill="#F45397" />
    <path d="M56.4161 24V0.000567145H63.9755V24H56.4161Z" fill="#F45397" />
    <path
        d="M91.3384 15.3669C91.3384 21.5334 86.8733 24 78.6285 24C70.3837 24 65.9186 21.5334 65.9186 15.3669C65.9186 9.20035 70.3837 6.73375 78.6285 6.73375C86.8733 6.73375 91.3384 9.20035 91.3384 15.3669ZM83.779 15.3669C83.779 12.2803 82.0622 11.047 78.6285 11.047C75.1948 11.047 73.478 12.2803 73.478 15.3669C73.478 18.4535 75.1948 19.6801 78.6285 19.6801C82.0622 19.6801 83.779 18.4468 83.779 15.3669Z"
        fill="#F45397" />
    <path
        d="M127.492 7.34707L121.11 24H113.551L109.425 13.1081L105.306 24H97.7466L91.3651 7.34707H98.432L102.212 17.2765L105.991 7.34707H112.859L116.639 17.2765L120.418 7.34707H127.492Z"
        fill="#F45397" />
    <path d="M154.263 11.8749L131.984 0.000571613V23.7493L154.263 11.8749Z" fill="#F45397" />
    <path d="M181 12.1256L158.721 0.251253V24L181 12.1256Z" fill="#F45397" />
</svg>