<svg width="34" height="33" viewBox="0 0 34 33" fill="none" xmlns="http://www.w3.org/2000/svg">
<path fill-rule="evenodd" clip-rule="evenodd" d="M17.1217 25.1948C22.0327 25.1948 26.014 21.2136 26.014 16.3025C26.014 11.3914 22.0327 7.41024 17.1217 7.41024C12.2106 7.41024 8.22939 11.3914 8.22939 16.3025C8.22939 21.2136 12.2106 25.1948 17.1217 25.1948ZM17.1217 22.2307C20.3957 22.2307 23.0499 19.5765 23.0499 16.3025C23.0499 13.0285 20.3957 10.3743 17.1217 10.3743C13.8476 10.3743 11.1935 13.0285 11.1935 16.3025C11.1935 19.5765 13.8476 22.2307 17.1217 22.2307Z" fill="#10AAF4"/>
<path d="M26.014 5.92819C25.1954 5.92819 24.5319 6.59173 24.5319 7.41024C24.5319 8.22874 25.1954 8.89228 26.014 8.89228C26.8325 8.89228 27.496 8.22874 27.496 7.41024C27.496 6.59173 26.8325 5.92819 26.014 5.92819Z" fill="#10AAF4"/>
<path fill-rule="evenodd" clip-rule="evenodd" d="M1.78835 4.85528C0.819153 6.75744 0.819153 9.24751 0.819153 14.2277V18.3774C0.819153 23.3575 0.819153 25.8476 1.78835 27.7497C2.64089 29.4229 4.00123 30.7833 5.67443 31.6358C7.57659 32.605 10.0667 32.605 15.0468 32.605H19.1965C24.1767 32.605 26.6668 32.605 28.5689 31.6358C30.2421 30.7833 31.6025 29.4229 32.4549 27.7497C33.4242 25.8476 33.4242 23.3575 33.4242 18.3774V14.2277C33.4242 9.24751 33.4242 6.75744 32.4549 4.85528C31.6025 3.18207 30.2421 1.82173 28.5689 0.969199C26.6668 0 24.1767 0 19.1965 0H15.0468C10.0667 0 7.57659 0 5.67443 0.969199C4.00123 1.82173 2.64089 3.18207 1.78835 4.85528ZM19.1965 2.96409H15.0468C12.5078 2.96409 10.7818 2.96641 9.44775 3.0754C8.14823 3.18157 7.48368 3.37401 7.0201 3.61022C5.90463 4.17859 4.99774 5.08548 4.42938 6.20094C4.19317 6.66453 4.00072 7.32908 3.89455 8.6286C3.78556 9.96269 3.78325 11.6887 3.78325 14.2277V18.3774C3.78325 20.9164 3.78556 22.6423 3.89455 23.9764C4.00072 25.276 4.19317 25.9406 4.42938 26.4042C4.99774 27.5195 5.90463 28.4264 7.0201 28.9948C7.48368 29.231 8.14823 29.4235 9.44775 29.5296C10.7818 29.6386 12.5078 29.6409 15.0468 29.6409H19.1965C21.7356 29.6409 23.4614 29.6386 24.7956 29.5296C26.0952 29.4235 26.7597 29.231 27.2233 28.9948C28.3387 28.4264 29.2456 27.5195 29.8139 26.4042C30.0502 25.9406 30.2427 25.276 30.3488 23.9764C30.4577 22.6423 30.4601 20.9164 30.4601 18.3774V14.2277C30.4601 11.6887 30.4577 9.96269 30.3488 8.6286C30.2427 7.32908 30.0502 6.66453 29.8139 6.20094C29.2456 5.08548 28.3387 4.17859 27.2233 3.61022C26.7597 3.37401 26.0952 3.18157 24.7956 3.0754C23.4614 2.96641 21.7356 2.96409 19.1965 2.96409Z" fill="#10AAF4"/>
</svg>
