<svg width="34" height="33" viewBox="0 0 34 33" fill="none" xmlns="http://www.w3.org/2000/svg">
<path fill-rule="evenodd" clip-rule="evenodd" d="M26.6722 14.4526C21.4179 11.3323 12.7498 11.0449 7.73193 12.5676C6.92659 12.8105 6.0756 12.3572 5.83106 11.5503C5.58652 10.7449 6.04136 9.89391 6.84671 9.64937C12.6064 7.90011 22.1792 8.23743 28.2291 11.8289C28.9529 12.2593 29.1909 13.1954 28.7606 13.9192C28.3334 14.6431 27.3944 14.883 26.6722 14.4526ZM26.501 19.0743C26.1326 19.6726 25.3501 19.8598 24.7518 19.493C20.3713 16.7998 13.6905 16.0205 8.50794 17.5937C7.83465 17.7958 7.12549 17.4176 6.92171 16.7459C6.71956 16.0742 7.09777 15.3648 7.76943 15.161C13.6889 13.3645 21.0495 14.2352 26.0821 17.3278C26.6804 17.6946 26.8678 18.4776 26.501 19.0743ZM24.5056 23.5129C24.2122 23.9922 23.5878 24.1438 23.1085 23.8504C19.2806 21.511 14.4616 20.983 8.78671 22.279C8.24058 22.4046 7.69444 22.0618 7.57054 21.5141C7.44501 20.9679 7.78574 20.4241 8.33513 20.2985C14.5448 18.8786 19.8708 19.4895 24.1681 22.1159C24.6474 22.4093 24.799 23.0336 24.5056 23.5129ZM17.0293 0C8.02538 0 0.726746 7.29864 0.726746 16.3025C0.726746 25.3064 8.02538 32.605 17.0293 32.605C26.0331 32.605 33.3318 25.3064 33.3318 16.3025C33.3318 7.30027 26.0331 0 17.0293 0Z" fill="#10AAF4"/>
</svg>
