<svg width="29" height="33" viewBox="0 0 29 33" fill="none" xmlns="http://www.w3.org/2000/svg">
<path d="M15.5006 0.0271835C17.2788 0 19.0439 0.0141354 20.808 0C20.8667 2.20839 21.7618 4.19605 23.1858 5.66831L23.1837 5.66614C24.7164 7.04815 26.7107 7.94412 28.9093 8.09635L28.9397 8.09852V13.5744C26.8628 13.5222 24.9097 13.0427 23.1489 12.2185L23.238 12.2554C22.3864 11.8455 21.6662 11.4247 20.9818 10.955L21.0383 10.9919C21.0253 14.9597 21.0513 18.9274 21.0112 22.8809C20.8993 24.8958 20.2301 26.7334 19.1569 28.2676L19.1786 28.2339C17.3841 30.8066 14.4773 32.4952 11.1718 32.5952H11.1566C11.023 32.6018 10.8655 32.605 10.7069 32.605C8.82769 32.605 7.07121 32.0809 5.57435 31.1708L5.6178 31.1958C2.89347 29.555 1.01424 26.7475 0.666639 23.4822L0.662294 23.4377C0.635137 22.7581 0.622102 22.0785 0.649259 21.413C1.18152 16.2166 5.5309 12.1967 10.8177 12.1967C11.4119 12.1967 11.9941 12.2478 12.5601 12.3446L12.4992 12.3359C12.5264 14.3464 12.4449 16.358 12.4449 18.3685C11.9854 18.2021 11.4553 18.1053 10.9024 18.1053C8.87331 18.1053 7.14725 19.4036 6.50853 21.2162L6.49875 21.2488C6.35428 21.7131 6.27064 22.247 6.27064 22.7994C6.27064 23.0234 6.28476 23.2452 6.31083 23.4627L6.30866 23.4366C6.6693 25.6613 8.57459 27.3401 10.872 27.3401C10.9383 27.3401 11.0035 27.339 11.0686 27.3358H11.0589C12.6481 27.2879 14.0276 26.4322 14.8075 25.1676L14.8184 25.148C15.1084 24.7436 15.3072 24.2542 15.3735 23.7225L15.3746 23.7073C15.5103 21.2749 15.456 18.8567 15.4691 16.4243C15.4821 10.9484 15.456 5.48564 15.4962 0.0239215L15.5006 0.0271835Z" fill="#10AAF4"/>
</svg>
