<svg width="47" height="33" viewBox="0 0 47 33" fill="none" xmlns="http://www.w3.org/2000/svg">
<path fill-rule="evenodd" clip-rule="evenodd" d="M18.9184 22.3254V9.25587C23.5759 11.4391 27.1832 13.5481 31.4495 15.8219C27.9307 17.7659 23.5759 19.9471 18.9184 22.3254ZM44.875 2.75579C44.0715 1.70134 42.7022 0.880543 41.2444 0.608803C36.9594 -0.201781 10.2274 -0.204087 5.94478 0.608803C4.77573 0.827117 3.73473 1.35481 2.84048 2.17469C-0.927482 5.65854 0.253219 24.3413 1.16144 27.3676C1.54336 28.6775 2.03708 29.6223 2.65887 30.2424C3.45997 31.0622 4.5568 31.6268 5.81667 31.8799C9.34477 32.6069 27.5209 33.0134 41.1698 31.9891C42.4274 31.7708 43.5405 31.1881 44.4185 30.3334C47.9023 26.8634 47.6648 7.1315 44.875 2.75579Z" fill="#10AAF4"/>
</svg>
