<?xml version="1.0" encoding="UTF-8" standalone="no"?>
<!DOCTYPE svg PUBLIC "-//W3C//DTD SVG 1.1//EN" "http://www.w3.org/Graphics/SVG/1.1/DTD/svg11.dtd">
<svg width="100%" height="100%" viewBox="0 0 78 69" version="1.1" xmlns="http://www.w3.org/2000/svg" xmlns:xlink="http://www.w3.org/1999/xlink" xml:space="preserve" xmlns:serif="http://www.serif.com/" style="fill-rule:evenodd;clip-rule:evenodd;stroke-linejoin:round;stroke-miterlimit:2;">
    <g transform="matrix(1,0,0,1,0,-142.3)">
        <path d="M0,182.7L3.6,182.7C4.7,182.7 5.9,182.7 7,182.6C8.2,182.6 9.3,182.5 10.5,182.4C11.5,182.4 12.5,182.3 13.5,182.2C14.5,182.1 15.4,182 16.4,181.8C17.9,181.6 19.4,181.4 20.8,181C22.4,180.6 24,180.1 25.4,179.2C26.6,178.4 27.6,177.5 28.4,176.4C29.4,174.8 30.1,173.1 30.5,171.3C30.7,170.3 30.9,169.4 31.1,168.4C31.2,167.5 31.3,166.6 31.4,165.7C31.5,164.7 31.6,163.6 31.7,162.6C31.7,162 31.8,161.4 31.8,160.8L31.8,158.4C31.8,157.3 31.9,156.2 31.9,155.1L31.9,154.6L32.1,154.6L32.1,157.4C32.1,158.6 32.2,159.8 32.3,161.1C32.3,162.1 32.4,163.2 32.5,164.2C32.6,165.6 32.8,166.9 33,168.3C33.2,169.9 33.5,171.4 34,173C34.5,174.4 35.1,175.8 36,177C36.8,178 37.8,178.8 39,179.5C40.8,180.5 42.7,181.1 44.7,181.4C46,181.6 47.3,181.8 48.6,182C49.7,182.1 50.8,182.2 51.9,182.3C52.9,182.3 53.9,182.5 54.9,182.5C55.9,182.5 57,182.6 58,182.6C59.3,182.6 60.6,182.7 62,182.7L63.6,182.7C63.7,182.7 63.8,182.7 64,182.8C63.4,182.8 62.8,182.8 62.2,182.9C60.9,182.9 59.5,183 58.2,183C57.2,183 56.2,183 55.3,183.1C54,183.1 52.8,183.3 51.5,183.4C50.8,183.4 50.1,183.4 49.4,183.6C48.4,183.7 47.5,183.8 46.5,184C45.3,184.2 44,184.4 42.9,184.7C40.9,185.2 39.1,185.9 37.5,187.3C36.3,188.3 35.4,189.6 34.7,191C34.2,192.2 33.8,193.4 33.5,194.6C33.3,195.7 33.1,196.7 32.9,197.8C32.7,199 32.6,200.2 32.5,201.3L32.5,202.2C32.5,203.2 32.4,204.2 32.4,205.2C32.4,206.5 32.3,207.7 32.2,209L32.2,211L32.1,211C32.1,210.8 32.1,210.6 32,210.4L32,207.8C32,206.8 32,205.8 31.9,204.8C31.9,203.9 31.8,203 31.7,202.1C31.6,200.7 31.4,199.3 31.2,197.9C30.9,195.8 30.6,193.8 29.8,191.9C29.3,190.6 28.7,189.5 27.8,188.4C26.4,186.7 24.5,185.7 22.5,185.1C21.1,184.7 19.8,184.3 18.4,184.1C17.2,183.9 16,183.7 14.8,183.6C13.9,183.5 12.9,183.4 12,183.4C10.7,183.4 9.4,183.3 8.1,183.2C7.1,183.2 6,183.1 5,183.1C3.9,183.1 2.7,183 1.5,183L0,183L0,182.7Z" style="fill:rgb(255,165,0);fill-rule:nonzero;"/>
    </g>
    <g transform="matrix(1,0,0,1,-0.6,-129.6)">
        <path d="M50.7,141.9L56.6,141.9C57,141.9 57.4,141.9 57.9,141.7C58.5,141.6 59.2,141.5 59.8,141.4C60.5,141.2 61.2,141 61.8,140.6C62.3,140.3 62.8,139.9 63.1,139.3C63.6,138.6 63.8,137.8 64,137C64,136.6 64.2,136.1 64.3,135.7C64.3,135.3 64.3,134.9 64.4,134.5C64.4,134 64.4,133.6 64.5,133.1L64.5,129.6L64.5,132.5C64.5,133 64.5,133.4 64.6,133.9C64.6,134.5 64.7,135.1 64.8,135.7C64.8,136.4 65,137.1 65.3,137.8C65.5,138.4 65.8,139 66.2,139.6C66.6,140.1 67,140.4 67.5,140.7C68.3,141.1 69.1,141.4 70,141.5C70.6,141.5 71.1,141.7 71.7,141.8C72.2,141.8 72.7,141.8 73.2,141.9L78.5,141.9L74.6,141.9C74,141.9 73.5,141.9 72.9,142L72,142C71.6,142 71.2,142 70.7,142.2C70.2,142.2 69.6,142.4 69.1,142.5C68.2,142.7 67.4,143 66.7,143.6C66.2,144 65.8,144.6 65.5,145.2C65.3,145.7 65.1,146.2 65,146.8C64.9,147.3 64.8,147.8 64.8,148.2C64.8,148.7 64.7,149.2 64.6,149.8L64.6,154.2L64.6,150.2C64.6,149.6 64.5,149 64.4,148.3C64.3,147.4 64.1,146.5 63.8,145.6C63.6,145 63.3,144.5 62.9,144C62.3,143.3 61.5,142.8 60.6,142.5C60,142.3 59.4,142.2 58.8,142.1C58.3,142.1 57.8,141.9 57.2,141.9C56.8,141.9 56.4,141.9 56,141.8L50.8,141.8L50.7,141.9Z" style="fill:rgb(255,165,0);fill-rule:nonzero;stroke:rgb(255,165,0);stroke-width:0.3px;"/>
    </g>
</svg>
