<?xml version="1.0" encoding="UTF-8" standalone="no"?>
<!DOCTYPE svg PUBLIC "-//W3C//DTD SVG 1.1//EN" "http://www.w3.org/Graphics/SVG/1.1/DTD/svg11.dtd">
<svg width="100%" height="100%" viewBox="0 0 94 81" version="1.1" xmlns="http://www.w3.org/2000/svg" xmlns:xlink="http://www.w3.org/1999/xlink" xml:space="preserve" xmlns:serif="http://www.serif.com/" style="fill-rule:evenodd;clip-rule:evenodd;stroke-linejoin:round;stroke-miterlimit:2;">
    <g transform="matrix(1,0,0,1,-790.271,-2.22045e-15)">
        <path d="M819.1,28.1L822.7,28.1C823.8,28.1 825,28.1 826.1,28C827.3,28 828.4,27.9 829.6,27.8C830.6,27.8 831.6,27.7 832.6,27.6C833.6,27.5 834.5,27.4 835.5,27.2C837,27 838.5,26.8 839.9,26.4C841.5,26 843.1,25.5 844.5,24.6C845.7,23.8 846.7,22.9 847.5,21.8C848.5,20.2 849.2,18.5 849.6,16.7C849.8,15.7 850,14.8 850.2,13.8C850.3,12.9 850.4,12 850.5,11.1C850.5,10.1 850.7,9 850.8,8C850.8,7.4 850.9,6.8 851,6.2L851,3.8C851,2.7 851,1.6 851.2,0.5L851.2,0L851.4,0L851.4,2.8C851.4,4 851.5,5.3 851.6,6.5C851.6,7.5 851.7,8.6 851.8,9.6C851.9,11 852.1,12.3 852.3,13.7C852.5,15.3 852.8,16.8 853.3,18.4C853.8,19.8 854.4,21.2 855.3,22.4C856.1,23.4 857.1,24.2 858.3,24.9C860.1,25.9 862,26.4 864,26.8C865.3,27 866.6,27.2 867.9,27.4C869,27.5 870.1,27.6 871.2,27.7C872.2,27.7 873.2,27.9 874.2,27.9C875.2,27.9 876.3,28 877.3,28C878.6,28 880,28.1 881.3,28.1L882.9,28.1C883,28.1 883.1,28.1 883.3,28.2C882.7,28.2 882.1,28.2 881.5,28.3C880.2,28.3 878.8,28.4 877.5,28.4C876.5,28.4 875.5,28.4 874.6,28.5C873.3,28.5 872.1,28.7 870.8,28.8C870.1,28.8 869.4,28.8 868.7,29C867.7,29.1 866.8,29.2 865.8,29.4C864.6,29.6 863.3,29.8 862.1,30.1C860.1,30.6 858.3,31.3 856.7,32.7C855.5,33.7 854.6,35 853.9,36.4C853.4,37.6 853,38.8 852.7,40C852.5,41.1 852.3,42.2 852.1,43.2C851.9,44.4 851.8,45.5 851.7,46.7L851.7,47.6C851.7,48.6 851.7,49.6 851.5,50.6C851.5,51.9 851.3,53.1 851.3,54.4L851.3,56.4L851.3,53.2C851.3,52.2 851.3,51.2 851.1,50.2C851.1,49.3 851,48.4 850.9,47.5C850.8,46.1 850.6,44.7 850.4,43.3C850.1,41.3 849.7,39.2 849,37.3C848.5,36 847.9,34.8 847,33.8C845.6,32.1 843.7,31.1 841.7,30.5C840.4,30 839,29.7 837.5,29.5C836.3,29.3 835.1,29.1 833.9,29C833,28.9 832,28.8 831.1,28.8C829.8,28.8 828.5,28.7 827.2,28.6C826.2,28.6 825.1,28.5 824,28.5C822.8,28.5 821.7,28.4 820.5,28.4L819.2,28.4L819.2,28.3L819.1,28.1Z" style="fill:rgb(255,165,0);fill-rule:nonzero;"/>
    </g>
    <g transform="matrix(1,0,0,1,-665.6,-24.9343)">
        <path d="M665.6,85.2L668.2,85.2C669,85.2 669.8,85.2 670.6,85.1C671.4,85.1 672.3,85 673.1,84.9C673.8,84.9 674.5,84.9 675.2,84.7C675.9,84.7 676.6,84.5 677.3,84.4C678.4,84.2 679.4,84.1 680.4,83.9C681.6,83.6 682.7,83.2 683.7,82.6C684.6,82.1 685.3,81.4 685.8,80.6C686.5,79.5 687,78.2 687.3,76.9C687.4,76.2 687.6,75.5 687.7,74.8C687.8,74.2 687.9,73.5 687.9,72.9C687.9,72.2 688,71.4 688.1,70.7C688.1,70.3 688.1,69.9 688.2,69.4L688.2,67.7C688.2,66.9 688.2,66.1 688.3,65.4L688.3,65.1L688.5,65.1L688.5,67.1C688.5,68 688.6,68.9 688.7,69.7C688.7,70.4 688.7,71.2 688.9,71.9C689,72.9 689.1,73.8 689.3,74.8C689.5,75.9 689.7,77.1 690,78.1C690.3,79.1 690.8,80.1 691.5,80.9C692.1,81.6 692.8,82.2 693.6,82.7C694.9,83.4 696.2,83.8 697.7,84.1C698.6,84.3 699.6,84.4 700.5,84.5C701.3,84.6 702.1,84.7 702.9,84.7C703.6,84.7 704.3,84.8 705,84.9C705.7,84.9 706.5,84.9 707.2,85C708.1,85 709.1,85 710,85.1L711.5,85.1L710.2,85.1C709.2,85.1 708.3,85.1 707.3,85.2C706.6,85.2 705.9,85.2 705.2,85.3C704.3,85.3 703.4,85.4 702.5,85.5C702,85.5 701.5,85.5 701,85.6C700.3,85.6 699.6,85.8 698.9,85.9C698,86.1 697.1,86.2 696.3,86.4C694.9,86.8 693.5,87.3 692.4,88.2C691.5,88.9 690.9,89.8 690.4,90.9C690,91.7 689.8,92.6 689.6,93.5C689.4,94.3 689.3,95 689.2,95.8C689.1,96.6 689,97.5 688.9,98.3L688.9,99C688.9,99.7 688.9,100.4 688.8,101.2C688.8,102.1 688.7,103 688.6,103.9L688.6,105.3L688.6,102.9C688.6,102.2 688.6,101.5 688.5,100.7C688.5,100 688.5,99.4 688.3,98.8C688.2,97.8 688.1,96.8 688,95.8C687.8,94.3 687.5,92.9 687,91.5C686.7,90.6 686.2,89.7 685.6,89C684.6,87.8 683.2,87.1 681.8,86.6C680.8,86.3 679.8,86 678.8,85.9C677.9,85.8 677.1,85.6 676.2,85.5C675.5,85.5 674.9,85.4 674.2,85.3C673.3,85.3 672.3,85.2 671.4,85.1C670.6,85.1 669.9,85.1 669.1,85C668.3,85 667.5,85 666.6,84.9L665.7,84.9L665.7,84.8L665.6,85.2Z" style="fill:rgb(255,165,0);fill-rule:nonzero;stroke:rgb(255,165,0);stroke-width:0.3px;"/>
    </g>
</svg>
